PathFileType	4	(X/Y/Z)	C:\Users\italobelli\Desktop\GitHub\PTbot_officialCBL\Personal_Results\FLX01_noisy2.trc
DataRate	CameraRate	NumFrames	NumMarkers	Units	OrigDataRate	OrigDataStartFrame	OrigNumFrames
106.533333	106.533333	33	9	m	106.533333	601	800
Frame#	Time		gu		centelbow		EpL		centpxt8		centijc7		ij		ts		aa		ai
			X1	Y1	Z1	X2	Y2	Z2	X3	Y3	Z3	X4	Y4	Z4	X5	Y5	Z5	X6	Y6	Z6	X7	Y7	Z7	X8	Y8	Z8	X9	Y9	Z9

601	5.632	-0.068154	-0.010886	0.16463	-0.015919	-0.25192	0.20346	0.0041728	-0.24044	0.22537	-0.046816	-0.15316	-0.008669	-0.046816	0.031938	-0.008669	0	0	0	-0.14482	0.020463	0.057203	-0.10046	0.018175	0.16801	-0.15076	-0.092944	0.062682
602	5.6414	-0.068203	-0.011104	0.16471	-0.019047	-0.25283	0.20295	0.0011571	-0.24171	0.22493	-0.046816	-0.15316	-0.008669	-0.046816	0.031938	-0.008669	0	0	0	-0.14462	0.020572	0.05718	-0.1005	0.018124	0.16808	-0.15074	-0.092835	0.062544
603	5.6508	-0.068255	-0.011317	0.1648	-0.022206	-0.25374	0.20245	-0.0018929	-0.24297	0.22449	-0.046816	-0.15316	-0.008669	-0.046816	0.031938	-0.008669	0	0	0	-0.14441	0.02068	0.057156	-0.10055	0.018074	0.16816	-0.15072	-0.092725	0.062408
604	5.6602	-0.068308	-0.011525	0.16488	-0.025389	-0.25463	0.20194	-0.0049714	-0.24421	0.22405	-0.046816	-0.15316	-0.008669	-0.046816	0.031938	-0.008669	0	0	0	-0.1442	0.020787	0.057132	-0.1006	0.018025	0.16823	-0.15069	-0.092615	0.062274
605	5.6696	-0.068363	-0.011728	0.16496	-0.028591	-0.25552	0.20143	-0.0080728	-0.24543	0.2236	-0.046816	-0.15316	-0.008669	-0.046816	0.031938	-0.008669	0	0	0	-0.14399	0.020893	0.057107	-0.10065	0.017978	0.1683	-0.15066	-0.092504	0.062142
606	5.679	-0.068419	-0.011927	0.16504	-0.031806	-0.25638	0.20092	-0.011191	-0.24664	0.22316	-0.046816	-0.15316	-0.008669	-0.046816	0.031938	-0.008669	0	0	0	-0.14378	0.020998	0.057081	-0.1007	0.017932	0.16837	-0.15063	-0.092393	0.062012
607	5.6884	-0.068477	-0.012121	0.16512	-0.035029	-0.25724	0.20041	-0.014321	-0.24783	0.22272	-0.046816	-0.15316	-0.008669	-0.046816	0.031938	-0.008669	0	0	0	-0.14357	0.021101	0.057054	-0.10076	0.017887	0.16844	-0.1506	-0.092283	0.061883
608	5.6977	-0.068536	-0.012311	0.16519	-0.038254	-0.25808	0.19991	-0.017456	-0.249	0.22227	-0.046816	-0.15316	-0.008669	-0.046816	0.031938	-0.008669	0	0	0	-0.14335	0.021204	0.057027	-0.10081	0.017844	0.16851	-0.15057	-0.092172	0.061757
609	5.7071	-0.068596	-0.012496	0.16527	-0.041474	-0.25891	0.1994	-0.020591	-0.25015	0.22183	-0.046816	-0.15316	-0.008669	-0.046816	0.031938	-0.008669	0	0	0	-0.14314	0.021305	0.057	-0.10087	0.017803	0.16858	-0.15053	-0.092062	0.061632
610	5.7165	-0.068656	-0.012676	0.16535	-0.044685	-0.25972	0.1989	-0.02372	-0.25128	0.2214	-0.046816	-0.15316	-0.008669	-0.046816	0.031938	-0.008669	0	0	0	-0.14292	0.021405	0.056972	-0.10092	0.017762	0.16865	-0.15049	-0.091952	0.061509
611	5.7259	-0.068716	-0.012852	0.16542	-0.04788	-0.26052	0.19841	-0.026837	-0.2524	0.22096	-0.046816	-0.15316	-0.008669	-0.046816	0.031938	-0.008669	0	0	0	-0.14271	0.021503	0.056944	-0.10098	0.017724	0.16871	-0.15045	-0.091842	0.061389
612	5.7353	-0.068777	-0.013023	0.16549	-0.051054	-0.2613	0.19792	-0.029936	-0.25348	0.22053	-0.046816	-0.15316	-0.008669	-0.046816	0.031938	-0.008669	0	0	0	-0.14249	0.0216	0.056915	-0.10104	0.017686	0.16878	-0.15041	-0.091733	0.061271
613	5.7447	-0.068837	-0.01319	0.16557	-0.054201	-0.26206	0.19744	-0.033012	-0.25455	0.22011	-0.046816	-0.15316	-0.008669	-0.046816	0.031938	-0.008669	0	0	0	-0.14227	0.021695	0.056886	-0.1011	0.017651	0.16884	-0.15036	-0.091625	0.061155
614	5.7541	-0.068897	-0.013352	0.16564	-0.057315	-0.2628	0.19696	-0.036059	-0.25559	0.21969	-0.046816	-0.15316	-0.008669	-0.046816	0.031938	-0.008669	0	0	0	-0.14206	0.021789	0.056857	-0.10116	0.017616	0.16891	-0.15032	-0.091518	0.061041
615	5.7635	-0.068956	-0.01351	0.16571	-0.060391	-0.26353	0.19649	-0.039072	-0.25661	0.21927	-0.046816	-0.15316	-0.008669	-0.046816	0.031938	-0.008669	0	0	0	-0.14184	0.021881	0.056827	-0.10121	0.017584	0.16897	-0.15027	-0.091412	0.060929
616	5.7728	-0.069015	-0.013664	0.16577	-0.063423	-0.26423	0.19603	-0.042043	-0.2576	0.21887	-0.046816	-0.15316	-0.008669	-0.046816	0.031938	-0.008669	0	0	0	-0.14163	0.021971	0.056798	-0.10127	0.017552	0.16903	-0.15022	-0.091307	0.06082
617	5.7822	-0.069072	-0.013813	0.16584	-0.066405	-0.26492	0.19558	-0.044969	-0.25857	0.21847	-0.046816	-0.15316	-0.008669	-0.046816	0.031938	-0.008669	0	0	0	-0.14142	0.02206	0.056768	-0.10133	0.017523	0.16909	-0.15017	-0.091203	0.060712
618	5.7916	-0.069128	-0.013958	0.1659	-0.069331	-0.26558	0.19514	-0.047842	-0.2595	0.21808	-0.046816	-0.15316	-0.008669	-0.046816	0.031938	-0.008669	0	0	0	-0.14121	0.022146	0.056738	-0.10138	0.017495	0.16914	-0.15012	-0.091101	0.060608
619	5.801	-0.069182	-0.014099	0.16597	-0.072196	-0.26622	0.19471	-0.050657	-0.26041	0.2177	-0.046816	-0.15316	-0.008669	-0.046816	0.031938	-0.008669	0	0	0	-0.141	0.022231	0.056708	-0.10144	0.017468	0.1692	-0.15007	-0.091	0.060505
620	5.8104	-0.069234	-0.014235	0.16603	-0.074993	-0.26685	0.19429	-0.053408	-0.26129	0.21733	-0.046816	-0.15316	-0.008669	-0.046816	0.031938	-0.008669	0	0	0	-0.14079	0.022314	0.056678	-0.1015	0.017443	0.16925	-0.15002	-0.0909	0.060405
621	5.8198	-0.069284	-0.014368	0.16609	-0.077718	-0.26744	0.19388	-0.05609	-0.26214	0.21697	-0.046816	-0.15316	-0.008669	-0.046816	0.031938	-0.008669	0	0	0	-0.14059	0.022395	0.056648	-0.10155	0.017419	0.1693	-0.14996	-0.090803	0.060308
622	5.8292	-0.069332	-0.014496	0.16615	-0.080365	-0.26802	0.19348	-0.058697	-0.26295	0.21662	-0.046816	-0.15316	-0.008669	-0.046816	0.031938	-0.008669	0	0	0	-0.14039	0.022474	0.056618	-0.1016	0.017398	0.16935	-0.14991	-0.090707	0.060213
623	5.8385	-0.069377	-0.01462	0.1662	-0.082927	-0.26857	0.1931	-0.061223	-0.26374	0.21628	-0.046816	-0.15316	-0.008669	-0.046816	0.031938	-0.008669	0	0	0	-0.14019	0.02255	0.056588	-0.10165	0.017377	0.1694	-0.14985	-0.090613	0.060121
624	5.8479	-0.069419	-0.01474	0.16626	-0.085399	-0.2691	0.19274	-0.063662	-0.26449	0.21596	-0.046816	-0.15316	-0.008669	-0.046816	0.031938	-0.008669	0	0	0	-0.14	0.022625	0.056558	-0.1017	0.017359	0.16945	-0.1498	-0.090522	0.060031
625	5.8573	-0.069458	-0.014856	0.16631	-0.087775	-0.2696	0.19239	-0.066009	-0.2652	0.21565	-0.046816	-0.15316	-0.008669	-0.046816	0.031938	-0.008669	0	0	0	-0.13981	0.022697	0.056529	-0.10174	0.017342	0.16949	-0.14974	-0.090433	0.059944
626	5.8667	-0.069494	-0.014968	0.16636	-0.09005	-0.27007	0.19205	-0.068257	-0.26588	0.21535	-0.046816	-0.15316	-0.008669	-0.046816	0.031938	-0.008669	0	0	0	-0.13962	0.022767	0.056499	-0.10179	0.017327	0.16953	-0.14968	-0.090346	0.05986
627	5.8761	-0.069526	-0.015075	0.16641	-0.092218	-0.27052	0.19174	-0.070402	-0.26653	0.21507	-0.046816	-0.15316	-0.008669	-0.046816	0.031938	-0.008669	0	0	0	-0.13944	0.022834	0.05647	-0.10183	0.017313	0.16957	-0.14962	-0.090262	0.059778
628	5.8855	-0.069555	-0.015179	0.16645	-0.094272	-0.27094	0.19144	-0.072436	-0.26714	0.21481	-0.046816	-0.15316	-0.008669	-0.046816	0.031938	-0.008669	0	0	0	-0.13927	0.022899	0.056441	-0.10187	0.017301	0.16961	-0.14956	-0.09018	0.059699
629	5.8949	-0.069579	-0.015279	0.1665	-0.096208	-0.27133	0.19116	-0.074355	-0.26771	0.21456	-0.046816	-0.15316	-0.008669	-0.046816	0.031938	-0.008669	0	0	0	-0.13909	0.022962	0.056413	-0.10191	0.017291	0.16964	-0.14951	-0.090101	0.059623
630	5.9043	-0.069599	-0.015375	0.16654	-0.09802	-0.2717	0.1909	-0.076153	-0.26824	0.21433	-0.046816	-0.15316	-0.008669	-0.046816	0.031938	-0.008669	0	0	0	-0.13893	0.023022	0.056385	-0.10194	0.017282	0.16967	-0.14945	-0.090025	0.05955
631	5.9136	-0.069614	-0.015468	0.16658	-0.099701	-0.27203	0.19066	-0.077823	-0.26873	0.21411	-0.046816	-0.15316	-0.008669	-0.046816	0.031938	-0.008669	0	0	0	-0.13877	0.023079	0.056357	-0.10197	0.017275	0.1697	-0.14939	-0.089952	0.059479
632	5.923	-0.069625	-0.015556	0.16661	-0.10125	-0.27234	0.19044	-0.079361	-0.26917	0.21392	-0.046816	-0.15316	-0.008669	-0.046816	0.031938	-0.008669	0	0	0	-0.13861	0.023134	0.05633	-0.102	0.01727	0.16972	-0.14933	-0.089882	0.059412
633	5.9324	-0.069631	-0.015641	0.16665	-0.10265	-0.27261	0.19024	-0.08076	-0.26958	0.21374	-0.046816	-0.15316	-0.008669	-0.046816	0.031938	-0.008669	0	0	0	-0.13846	0.023186	0.056303	-0.10202	0.017267	0.16975	-0.14927	-0.089816	0.059347
